<?xml version="1.0" encoding="utf-8"?>
<!-- Generator: Adobe Illustrator 21.0.0, SVG Export Plug-In . SVG Version: 6.00 Build 0)  -->
<svg version="1.1" id="Слой_1" xmlns="http://www.w3.org/2000/svg" xmlns:xlink="http://www.w3.org/1999/xlink" x="0px" y="0px"
	 viewBox="0 0 50 50" style="enable-background:new 0 0 50 50;" xml:space="preserve">
<style type="text/css">
	.st0{fill:#FFFFFF;}
</style>
<g>
	<path class="st0" d="M25,0c6.9,0,13.2,2.8,17.7,7.3C47.2,11.8,50,18.1,50,25c0,6.9-2.8,13.2-7.3,17.7C38.2,47.2,31.9,50,25,50
		c-6.9,0-13.2-2.8-17.7-7.3C2.8,38.2,0,31.9,0,25c0-6.9,2.8-13.2,7.3-17.7C11.8,2.8,18.1,0,25,0L25,0z M41.3,8.7
		C37.1,4.5,31.4,2,25,2C18.6,2,12.9,4.5,8.7,8.7C4.5,12.9,2,18.6,2,25c0,6.4,2.6,12.1,6.8,16.3C12.9,45.5,18.6,48,25,48
		c6.4,0,12.1-2.6,16.3-6.7C45.5,37.1,48,31.4,48,25C48,18.6,45.5,12.9,41.3,8.7L41.3,8.7z"/>
	<g>
		<path class="st0" d="M25,10.5c-4.1,0-7.4,3.3-7.4,7.4s3.3,7.4,7.4,7.4s7.4-3.3,7.4-7.4S29.1,10.5,25,10.5z M25,20.9
			c-1.7,0-3.1-1.4-3.1-3.1c0-1.7,1.4-3.1,3.1-3.1c1.7,0,3.1,1.4,3.1,3.1C28.1,19.6,26.7,20.9,25,20.9z"/>
		<g>
			<path class="st0" d="M32.5,35.8c0.8,0.7,0.8,2,0,2.7c-0.7,0.8-2,0.8-2.7,0L25.2,34l-5,5c-0.4,0.4-0.9,0.6-1.4,0.6
				c-0.5,0-1-0.2-1.4-0.6c-0.8-0.8-0.8-2,0-2.7l5.2-5.2c-3.5-0.6-5.1-2.6-5.3-2.8c0-0.1-0.1-0.1-0.1-0.2c-0.5-0.8-0.4-1.9,0.4-2.5
				c0.8-0.7,1.8-0.5,2.7,0.3c0,0,1.4,1.6,4.6,1.6c3.2,0,4.6-1.6,4.6-1.6c0.8-0.7,1.9-0.9,2.7-0.3c0.8,0.6,0.9,1.7,0.4,2.5
				c0,0.1-0.1,0.1-0.1,0.2c-0.2,0.2-1.8,2-5,2.7L32.5,35.8z"/>
		</g>
	</g>
</g>
</svg>
