<?xml version="1.0" encoding="utf-8"?>
<!-- Generator: Adobe Illustrator 21.0.0, SVG Export Plug-In . SVG Version: 6.00 Build 0)  -->
<svg version="1.1" id="Слой_1" xmlns="http://www.w3.org/2000/svg" xmlns:xlink="http://www.w3.org/1999/xlink" x="0px" y="0px"
	 viewBox="0 0 50 50" style="enable-background:new 0 0 50 50;" xml:space="preserve">
<style type="text/css">
	.st0{fill:#FFFFFF;}
	.st1{fill-rule:evenodd;clip-rule:evenodd;fill:#FFFFFF;}
</style>
<g>
	<path class="st0" d="M25,0c6.9,0,13.2,2.8,17.7,7.3C47.2,11.8,50,18.1,50,25c0,6.9-2.8,13.2-7.3,17.7C38.2,47.2,31.9,50,25,50
		s-13.2-2.8-17.7-7.3C2.8,38.2,0,31.9,0,25c0-6.9,2.8-13.2,7.3-17.7C11.8,2.8,18.1,0,25,0L25,0z M41.3,8.7C37.1,4.5,31.4,2,25,2
		S12.9,4.5,8.7,8.7C4.5,12.9,2,18.6,2,25c0,6.4,2.6,12.1,6.8,16.3C12.9,45.5,18.6,48,25,48s12.1-2.6,16.3-6.7
		C45.5,37.1,48,31.4,48,25C48,18.6,45.5,12.9,41.3,8.7L41.3,8.7z"/>
	<path class="st1" d="M37.8,18c-0.4-0.3-1.7-0.3-3-0.3c-1.4,0-2.7,0-3,0.2c-0.3,0.1-0.9,1.7-1.8,3.3c-1,1.8-2.1,3.6-2.9,3.6
		c-1,0-0.7-3-0.7-5.2c0-1.5-0.2-1.9-0.4-2c-0.5-0.4-1.9-0.7-1.9-0.7s-4.2-0.3-4.8,1.5c0.8,0.1,2.2-0.1,1.7,5.5
		c0,0.3-0.7,2.6-2.6-0.5c-0.5-0.8-2.4-5.5-3-5.5c-2.2,0-4.3-0.1-5.1,0.3c-0.7,0.4,0.9,3.7,3.7,8c2.3,3.6,4.7,6.3,8.8,7
		c0.8,0.1,2.8,0.2,3.5-0.1c0.4-0.2-0.1-3.3,1.4-3.6c0.7-0.1,3.2,3.2,4.1,3.6c0.6,0.2,1.9,0.3,3.2,0.3c1.4,0,3,0.1,3.2-0.8
		c0.3-2.1-4.3-4.9-4.4-6.2c-0.1-0.9,1.7-2.7,2.6-4C37.3,20.6,38.5,18.6,37.8,18L37.8,18z"/>
</g>
</svg>
