<?xml version="1.0" encoding="utf-8"?>
<!-- Generator: Adobe Illustrator 21.1.0, SVG Export Plug-In . SVG Version: 6.00 Build 0)  -->
<svg version="1.1" id="Слой_1" xmlns="http://www.w3.org/2000/svg" xmlns:xlink="http://www.w3.org/1999/xlink" x="0px" y="0px"
	 viewBox="0 0 681 249" style="enable-background:new 0 0 681 249;" xml:space="preserve">
<style type="text/css">
	.st0{fill:#F2F5FF;}
	.st1{fill:none;stroke:#21367E;stroke-width:8;stroke-linecap:round;stroke-linejoin:round;}
	.st2{fill:none;stroke:#F18B1B;stroke-width:6;}
	.st3{fill:#F18B1B;}
	.st4{fill:#21367E;}
	.st5{fill:none;stroke:#21367E;stroke-width:8;}
</style>
<title>404</title>
<desc>Created with Sketch.</desc>
<g id="Final">
	<g id="_x34_04_1_" transform="translate(-380.000000, -187.000000)">
		<g transform="translate(382.000000, 190.000000)">
			<g id="Group-15" transform="translate(267.000000, 165.000000)">
				<path id="Path" class="st0" d="M65,73.9H6.1L0.9,41.5l5.8-12L9,31.8c2.8,2.9,7.4,2.5,9.7-0.7L41,0.2c18.6,16,30.5,40.1,30.5,67
					C71.5,70.9,68.6,73.9,65,73.9z"/>
			</g>
			<g id="Group-23">
				<g id="Group-9">
					
						<g id="Group-25" transform="translate(522.852790, 59.500000) scale(-1, 1) translate(-522.852790, -59.500000) translate(410.352790, 0.000000)">
						
							<g id="Group-11" transform="translate(112.919534, 59.500000) scale(-1, 1) translate(-112.919534, -59.500000) translate(0.919534, 0.000000)">
							<polyline id="Stroke-4" class="st1" points="0,118.4 103.8,118.4 182,42.5 							"/>
							<path id="Stroke-6" class="st2" d="M223.2,23c0,12.7-10.3,23-23.1,23S177,35.7,177,23s10.3-23,23.1-23S223.2,10.3,223.2,23z"
								/>
							<path id="Fill-8" class="st3" d="M206,23c0,3.3-2.7,6-6,6s-6-2.7-6-6s2.7-6,6-6S206,19.7,206,23"/>
						</g>
					</g>
					
						<g id="Group-24" transform="translate(235.658832, 165.223065) scale(-1, 1) translate(-235.658832, -165.223065) translate(0.658832, 84.723065)">
						<g id="Group-3">
							<polyline id="Stroke-4_1_" class="st1" points="289.3,154.5 373.1,154.5 436.2,93.9 							"/>
							<path id="_x34_04" class="st4" d="M289.4,158.6v-39.1h72.2v-12.7L296.8,2.1h-20.6l62,99.5h-48.8V58h-17.9v43.6h-21.7v17.9
								h21.7v39.1H289.4z M230.8,80.4c0-47-15.4-80.1-50.8-80.1s-50.8,33.1-50.8,80.1c0,47.2,15,80.1,50.3,80.1
								S230.8,127.5,230.8,80.4z M211.8,80.4c0,40.3-10.1,63.3-32.2,63.3c-22.8,0-31.3-22.8-31.3-63.3s8.9-63.3,31.8-63.3
								S211.8,40.3,211.8,80.4z M40.2,158.6v-39.1h72.2v-12.7L47.6,2.1H27.1l62,99.5H40.2V58H22.4v43.6H0.7v17.9h21.7v39.1H40.2z"/>
							<path id="Stroke-6_1_" class="st2" d="M469.3,78.3c0,10.1-8.3,18.3-18.6,18.3S432,88.5,432,78.3S440.3,60,450.6,60
								S469.3,68.2,469.3,78.3z"/>
							<path id="Fill-8_1_" class="st3" d="M456.7,78c0,3.3-2.7,6-6,6s-6-2.7-6-6s2.7-6,6-6S456.7,74.7,456.7,78"/>
						</g>
					</g>
				</g>
				
					<g id="Group-16" transform="translate(558.674159, 186.672686) scale(1, -1) translate(-558.674159, -186.672686) translate(441.174159, 133.672686)">
					<polyline id="Stroke-22" class="st5" points="0.2,0.3 46.9,0.3 82,85.7 196.4,85.7 					"/>
					<path id="Stroke-28" class="st2" d="M234.3,87.3c0,10.1-8.3,18.3-18.6,18.3S197,97.5,197,87.3S205.3,69,215.6,69
						S234.3,77.2,234.3,87.3z"/>
					<path id="Fill-30" class="st3" d="M222,87c0,3.3-2.7,6-6,6s-6-2.7-6-6s2.7-6,6-6S222,83.7,222,87"/>
				</g>
			</g>
		</g>
	</g>
</g>
</svg>
