<?xml version="1.0" encoding="utf-8"?>
<!-- Generator: Adobe Illustrator 19.0.0, SVG Export Plug-In . SVG Version: 6.00 Build 0)  -->
<svg version="1.1" id="Layer_1" xmlns="http://www.w3.org/2000/svg" xmlns:xlink="http://www.w3.org/1999/xlink" x="0px" y="0px"
	 viewBox="-874 349 171 104" style="enable-background:new -874 349 171 104;" xml:space="preserve">
<style type="text/css">
	.st0{fill:none;stroke:#21367E;stroke-width:4;stroke-linecap:round;stroke-linejoin:round;}
	.st1{fill:none;stroke:#FB8A0F;stroke-width:1.898;}
	.st2{fill:#FB8A0F;}
	.st3{fill:none;stroke:#21367E;stroke-width:4;}
</style>
<title>delivery</title>
<desc>Created with Sketch.</desc>
<g id="Final">
	<g id="Logistics" transform="translate(-838.000000, -1070.000000)">
		<g id="Group-4" transform="translate(840.000000, 1072.000000)">
			<g id="delivery">
				<polyline id="Stroke-1" class="st0" points="-821.7,448.2 -821.7,430.8 -840.2,412.2 				"/>
				<polyline id="Stroke-2" class="st0" points="-766.5,448.2 -766.5,430.8 -747.9,412.2 				"/>
				<path id="Stroke-3" class="st1" d="M-845.6,402.3c3,0,5.5,2.5,5.5,5.5c0,3-2.5,5.5-5.5,5.5c-3,0-5.5-2.5-5.5-5.5
					C-851.1,404.7-848.6,402.3-845.6,402.3z"/>
				<path id="Fill-5" class="st2" d="M-845.6,406.3c0.8,0,1.5,0.7,1.5,1.5c0,0.8-0.7,1.5-1.5,1.5s-1.5-0.7-1.5-1.5
					C-847.1,406.9-846.4,406.3-845.6,406.3"/>
				<path id="Stroke-7" class="st1" d="M-742.9,402.3c3,0,5.5,2.5,5.5,5.5c0,3-2.5,5.5-5.5,5.5s-5.5-2.5-5.5-5.5
					C-748.4,404.7-745.9,402.3-742.9,402.3z"/>
				<path id="Fill-9" class="st2" d="M-742.9,406.3c0.8,0,1.5,0.7,1.5,1.5c0,0.8-0.7,1.5-1.5,1.5c-0.8,0-1.5-0.7-1.5-1.5
					C-744.4,406.9-743.7,406.3-742.9,406.3"/>
				<path id="Stroke-11" class="st0" d="M-796.5,448.2v-23.7"/>
				<path id="Stroke-13" class="st1" d="M-796.6,412c3,0,5.5,2.5,5.5,5.5c0,3-2.5,5.5-5.5,5.5s-5.5-2.5-5.5-5.5
					C-802.1,414.5-799.6,412-796.6,412z"/>
				<path id="Fill-15" class="st2" d="M-796.6,416c0.8,0,1.5,0.7,1.5,1.5c0,0.8-0.7,1.5-1.5,1.5s-1.5-0.7-1.5-1.5
					C-798.1,416.7-797.4,416-796.6,416"/>
				<polyline id="Stroke-17" class="st3" points="-753.3,448.6 -753.3,442 -778.8,431.7 -778.8,398 				"/>
				<polyline id="Stroke-19" class="st3" points="-837.1,448.6 -837.1,442 -811.6,431.7 -811.6,398 				"/>
				<path id="Stroke-21" class="st1" d="M-778.6,386.7c3,0,5.5,2.5,5.5,5.5c0,3-2.5,5.5-5.5,5.5s-5.5-2.5-5.5-5.5
					C-784.1,389.2-781.7,386.7-778.6,386.7z"/>
				<path id="Fill-23" class="st2" d="M-778.6,390.7c0.8,0,1.5,0.7,1.5,1.5s-0.7,1.5-1.5,1.5s-1.5-0.7-1.5-1.5
					S-779.5,390.7-778.6,390.7"/>
				<path id="Stroke-25" class="st1" d="M-811.6,386.7c3,0,5.5,2.5,5.5,5.5c0,3-2.5,5.5-5.5,5.5c-3,0-5.5-2.5-5.5-5.5
					C-817.1,389.2-814.6,386.7-811.6,386.7z"/>
				<path id="Fill-27" class="st2" d="M-811.6,390.7c0.8,0,1.5,0.7,1.5,1.5s-0.7,1.5-1.5,1.5s-1.5-0.7-1.5-1.5
					S-812.4,390.7-811.6,390.7"/>
				<path id="Stroke-32" class="st0" d="M-707.7,411.4c-1.8-30.6-26.6-40.3-46.9-40.3c-2.8,0-5.5,0.3-8.1,0.9
					c-6.5-13.4-20.3-22.7-36.3-22.7c-21.6,0-39.3,17-40.2,38.4c-1.3-0.2-2.6-0.3-3.9-0.3c-16.8,0-30.3,13.6-30.3,30.3
					c0,2.3-4.5,29.9,22.3,30.8h111C-705.1,447.2-707.5,415.5-707.7,411.4z"/>
			</g>
		</g>
	</g>
</g>
</svg>
