<?xml version="1.0" encoding="utf-8"?>
<!-- Generator: Adobe Illustrator 19.0.0, SVG Export Plug-In . SVG Version: 6.00 Build 0)  -->
<svg version="1.1" id="Layer_1" xmlns="http://www.w3.org/2000/svg" xmlns:xlink="http://www.w3.org/1999/xlink" x="0px" y="0px"
	 viewBox="-881 350 157 102" style="enable-background:new -881 350 157 102;" xml:space="preserve">
<style type="text/css">
	.st0{fill:#21367E;stroke:#21367E;}
	.st1{fill:none;stroke:#21367E;stroke-width:4;stroke-linecap:round;stroke-linejoin:round;}
	.st2{fill:none;stroke:#F18B1B;stroke-width:2.317;}
	.st3{fill:#F18B1B;}
	.st4{fill:none;stroke:#21367E;stroke-width:4;}
</style>
<title>file</title>
<desc>Created with Sketch.</desc>
<g id="Final">
	<g id="Cooperation" transform="translate(-839.000000, -668.000000)">
		<g id="Group-13" transform="translate(840.000000, 669.000000)">
			<g id="file">
				<path id="Shape" class="st0" d="M-809.9,431.8c0.4-0.3,0.6-0.7,0.6-1.2c0,0,0-72.6,0-72.6c0-0.9-0.7-1.6-1.6-1.6H-857
					c-1.1-3.7-4.6-6.4-8.6-6.4c-4,0-7.5,2.7-8.6,6.4h-5.1c-0.9,0-1.6,0.7-1.6,1.6v90.4c0,0.9,0.7,1.6,1.6,1.6h50.6
					c0.5,0,1-0.2,1.3-0.6L-809.9,431.8z M-827.2,444.5v-12.4h12.4L-827.2,444.5z M-865.7,353.2c2.3,0,4.2,1.3,5.2,3.2h-10.4
					C-869.9,354.5-867.9,353.2-865.7,353.2z M-877.8,359.6h18v11.2c0,1.5-1.2,2.7-2.7,2.7c-1.5,0-2.7-1.2-2.7-2.7v-6.4
					c0-0.9-0.7-1.6-1.6-1.6c-0.9,0-1.6,0.7-1.6,1.6v6.4c0,3.2,2.6,5.9,5.8,5.9c3.2,0,5.8-2.6,5.8-5.9v-11.2h44.1v69.4h-16.3
					c-0.9,0-1.6,0.7-1.6,1.6v16.3h-47.5V359.6z"/>
				<path id="Shape_1_" class="st0" d="M-823.3,422.6c0.9,0,1.6-0.6,1.6-1.3s-0.7-1.3-1.6-1.3h-42.8c-0.9,0-1.6,0.6-1.6,1.3
					s0.7,1.3,1.6,1.3H-823.3z"/>
				<path id="Shape_2_" class="st0" d="M-866.1,413.7h42.8c0.9,0,1.6-0.6,1.6-1.3s-0.7-1.3-1.6-1.3h-42.8c-0.9,0-1.6,0.6-1.6,1.3
					S-867,413.7-866.1,413.7z"/>
				<path id="Shape_3_" class="st0" d="M-866.1,404h42.8c0.9,0,1.6-0.6,1.6-1.3s-0.7-1.3-1.6-1.3h-42.8c-0.9,0-1.6,0.6-1.6,1.3
					S-867,404-866.1,404z"/>
				<path id="Shape_4_" class="st0" d="M-866.1,394.2h42.8c0.9,0,1.6-0.6,1.6-1.3s-0.7-1.3-1.6-1.3h-42.8c-0.9,0-1.6,0.6-1.6,1.3
					S-867,394.2-866.1,394.2z"/>
				<path id="Shape_5_" class="st0" d="M-866.1,384.5h42.8c0.9,0,1.6-0.6,1.6-1.3s-0.7-1.3-1.6-1.3h-42.8c-0.9,0-1.6,0.6-1.6,1.3
					S-867,384.5-866.1,384.5z"/>
				<path id="Shape_6_" class="st0" d="M-802.1,356.2h-2.2c-0.9,0-1.6,0.7-1.6,1.6s0.7,1.6,1.6,1.6h0.5v87.4H-821
					c-0.9,0-1.6,0.7-1.6,1.6c0,0.9,0.7,1.6,1.6,1.6h18.9c0.9,0,1.6-0.7,1.6-1.6v-90.6C-800.5,356.9-801.2,356.2-802.1,356.2z"/>
				<path id="Shape_7_" class="st0" d="M-794.1,356.2h-2.1c-0.9,0-1.6,0.7-1.6,1.6s0.7,1.6,1.6,1.6h0.5v87.4h-0.5
					c-0.9,0-1.6,0.7-1.6,1.6c0,0.9,0.7,1.6,1.6,1.6h2.1c0.9,0,1.6-0.7,1.6-1.6v-90.6C-792.5,356.9-793.2,356.2-794.1,356.2z"/>
				
					<g id="Group-25" transform="translate(121.664613, 32.530525) scale(-1, 1) translate(-121.664613, -32.530525) translate(87.610619, 14.159292)">
					
						<g id="Group-11" transform="translate(34.248728, 18.371233) scale(-1, 1) translate(-34.248728, -18.371233) translate(0.642814, 0.000000)">
						<polyline id="Stroke-4" class="st1" points="-881,386.3 -850,386.3 -826.7,363.6 						"/>
						<path id="Stroke-6" class="st2" d="M-814.5,357.1c0,3.8-3.1,6.9-6.9,6.9c-3.8,0-6.9-3.1-6.9-6.9c0-3.8,3.1-6.9,6.9-6.9
							C-817.6,350.2-814.5,353.3-814.5,357.1z"/>
						<path id="Fill-8" class="st3" d="M-819.5,357.1c0,1-0.8,1.9-1.9,1.9c-1,0-1.9-0.8-1.9-1.9c0-1,0.8-1.9,1.9-1.9
							C-820.3,355.2-819.5,356.1-819.5,357.1"/>
					</g>
				</g>
				
					<g id="Group-16" transform="translate(119.238938, 82.629216) scale(1, -1) translate(-119.238938, -82.629216) translate(83.840708, 66.700012)">
					<polyline id="Stroke-22" class="st4" points="-880.4,-349.9 -866.5,-349.9 -856,-324.4 -821.9,-324.4 					"/>
					<path id="Stroke-28" class="st2" d="M-810.4-324.4c0,3-2.5,5.5-5.6,5.5c-3.1,0-5.6-2.5-5.6-5.5s2.5-5.5,5.6-5.5
						C-812.9-329.9-810.4-327.4-810.4-324.4z"/>
					<path id="Fill-30" class="st3" d="M-814.5-324.4c0,0.8-0.7,1.5-1.5,1.5c-0.8,0-1.5-0.7-1.5-1.5s0.7-1.5,1.5-1.5
						C-815.2-325.9-814.5-325.2-814.5-324.4"/>
				</g>
			</g>
		</g>
	</g>
</g>
</svg>
