<?xml version="1.0" encoding="utf-8"?>
<!-- Generator: Adobe Illustrator 19.0.0, SVG Export Plug-In . SVG Version: 6.00 Build 0)  -->
<svg version="1.1" id="Layer_1" xmlns="http://www.w3.org/2000/svg" xmlns:xlink="http://www.w3.org/1999/xlink" x="0px" y="0px"
	 viewBox="-932 366 54 70" style="enable-background:new -932 366 54 70;" xml:space="preserve">
<style type="text/css">
	.st0{fill:#F18B1B;stroke:#F18B1B;}
</style>
<title>location-1</title>
<desc>Created with Sketch.</desc>
<g id="Final">
	<g id="Contacts" transform="translate(-864.000000, -695.000000)">
		<g id="Снимок-экрана-2018-10-25-в-11.43.26" transform="translate(0.000000, 521.000000)">
			<g id="location-1" transform="translate(865.000000, 175.000000)">
				<path id="Shape" class="st0" d="M-906,366c-14.3,0-26,11.5-26,25.7c0,10.1,5.9,19.2,15.2,23.3l1.8,3.4c0.3,0.7,1.2,0.9,1.8,0.6
					c0.7-0.3,0.9-1.1,0.6-1.8l-2-3.8c-0.1-0.3-0.4-0.5-0.7-0.6c-8.5-3.7-14-11.9-14-21.1c0-12.7,10.5-23,23.3-23
					c12.9,0,23.3,10.3,23.3,23c0,9.2-5.5,17.4-14,21.1c-0.3,0.1-0.5,0.3-0.7,0.6l-8.6,16.4l-6.6-12.2c-0.3-0.7,0.1,1.1-0.6,1.4
					c-0.7,0.3-2.2-1.2-1.8-0.6l7.8,14.8c0.2,0.4,0.7,0.7,1.2,0.7c0.5,0,1-0.3,1.2-0.7l9.6-18.3c9.2-4.2,15.2-13.3,15.2-23.3
					C-880,377.5-891.7,366-906,366z"/>
				<path id="Shape_1_" class="st0" d="M-888,391.5c0-9.6-8.1-17.5-18-17.5c-9.9,0-18,7.9-18,17.5c0,9.6,8.1,17.5,18,17.5
					C-896.1,409-888,401.1-888,391.5z M-921.3,391.5c0-8.2,6.9-14.9,15.3-14.9c8.4,0,15.3,6.7,15.3,14.9c0,8.2-6.9,14.9-15.3,14.9
					C-914.4,406.4-921.3,399.7-921.3,391.5z"/>
			</g>
		</g>
	</g>
</g>
</svg>
