<?xml version="1.0" encoding="utf-8"?>
<!-- Generator: Adobe Illustrator 19.0.0, SVG Export Plug-In . SVG Version: 6.00 Build 0)  -->
<svg version="1.1" id="Layer_1" xmlns="http://www.w3.org/2000/svg" xmlns:xlink="http://www.w3.org/1999/xlink" x="0px" y="0px"
	 viewBox="-851 331 216 140" style="enable-background:new -851 331 216 140;" xml:space="preserve">
<style type="text/css">
	.st0{fill:none;stroke:#21367E;stroke-width:4;stroke-linecap:round;stroke-linejoin:round;}
	.st1{fill:none;stroke:#F18B1B;stroke-width:2.317;}
	.st2{fill:#F18B1B;}
	.st3{fill:none;stroke:#21367E;stroke-width:4;}
	.st4{fill:#21367E;}
</style>
<title>material</title>
<desc>Created with Sketch.</desc>
<g id="Final">
	<g id="About" transform="translate(-840.000000, -274.000000)">
		<g id="Group-4" transform="translate(60.000000, 266.000000)">
			<g id="material" transform="translate(780.000000, 8.000000)">
				<g id="Group-19" transform="translate(0.000000, 8.527187)">
					<g id="Group-18">
						<g id="Group-17">
							<g id="Group-13">
								<g id="Group-25" transform="translate(33.652482, 64.609929)">
									
										<g id="Group-11" transform="translate(38.295508, 21.000000) scale(-1, 1) translate(-38.295508, -21.000000) translate(0.295508, 0.000000)">
										<polyline id="Stroke-4" class="st0" points="851,372.2 886.2,372.2 912.7,346.4 										"/>
										<path id="Stroke-6" class="st1" d="M926.5,339.1c0,4.3-3.5,7.8-7.8,7.8s-7.8-3.5-7.8-7.8s3.5-7.8,7.8-7.8
											S926.5,334.8,926.5,339.1z"/>
										<path id="Fill-8" class="st2" d="M920.8,339.1c0,1.2-0.9,2.1-2.1,2.1c-1.2,0-2.1-0.9-2.1-2.1s0.9-2.1,2.1-2.1
											C919.9,336.9,920.8,337.9,920.8,339.1"/>
									</g>
									<g id="Group-10" transform="translate(41.543735, 51.969267)">
										<path id="Stroke-9" class="st0" d="M-801.4,338h-35.7"/>
										<path id="Stroke-11" class="st1" d="M-851,337.5c0-3.6,2.9-6.5,6.5-6.5c3.6,0,6.5,2.9,6.5,6.5c0,3.6-2.9,6.5-6.5,6.5
											C-848.1,343.9-851,341-851,337.5z"/>
										<path id="Fill-13" class="st2" d="M-846,337.5c0-0.8,0.7-1.5,1.5-1.5c0.8,0,1.5,0.7,1.5,1.5c0,0.8-0.7,1.5-1.5,1.5
											C-845.4,338.9-846,338.3-846,337.5"/>
									</g>
								</g>
								<g id="Group-14" transform="translate(75.196217, 116.579196)">
								</g>
								
									<g id="Group-24" transform="translate(41.206913, 26.000000) scale(-1, 1) translate(-41.206913, -26.000000) translate(0.706913, 0.000000)">
									<polyline id="Stroke-4_1_" class="st0" points="854.9,364.1 883.3,364.1 904.7,343.5 									"/>
									<path id="Stroke-6_1_" class="st1" d="M915,337.4c0,3.4-2.8,6.2-6.3,6.2c-3.5,0-6.3-2.8-6.3-6.2s2.8-6.2,6.3-6.2
										C912.2,331.2,915,334,915,337.4z"/>
									<path id="Fill-8_1_" class="st2" d="M910.4,337.4c0,0.9-0.8,1.7-1.7,1.7s-1.7-0.8-1.7-1.7c0-0.9,0.8-1.7,1.7-1.7
										S910.4,336.5,910.4,337.4"/>
									<polyline id="Stroke-22" class="st3" points="851.7,346.9 867.5,346.9 879.4,375.8 918.1,375.8 									"/>
									<path id="Stroke-28" class="st1" d="M931.1,375.8c0,3.4-2.8,6.2-6.3,6.2c-3.5,0-6.3-2.8-6.3-6.2s2.8-6.2,6.3-6.2
										C928.3,369.6,931.1,372.4,931.1,375.8z"/>
									<path id="Fill-30" class="st2" d="M926.5,375.8c0,0.9-0.8,1.7-1.7,1.7s-1.7-0.8-1.7-1.7c0-0.9,0.8-1.7,1.7-1.7
										S926.5,374.9,926.5,375.8"/>
								</g>
							</g>
						</g>
					</g>
				</g>
				<g id="Group-20" transform="translate(76.354610, 0.000000)">
					<g id="cloth-_x28_1_x29_">
						<path id="Shape" class="st4" d="M-712.6,399.1l-5.4-5.4l5.4-5.4c0.8-0.8,0.8-2.1,0-2.9l-12.4-12.4c-0.4-0.4-0.9-0.6-1.4-0.6
							c-0.5,0-1.1,0.2-1.4,0.6l-5.4,5.4l-4-4l5.4-5.4c0.8-0.8,0.8-2.1,0-2.9l-12.7-12.7c-0.8-0.8-2.1-0.8-2.9,0l-5.4,5.4l-5.4-5.4
							l-1.1-1.1l5.4-5.4c0.8-0.8,0.8-2.1,0-2.9l-12.4-12.4c-0.4-0.4-0.9-0.6-1.4-0.6s-1.1,0.2-1.4,0.6l-5.4,5.4l-5.4-5.4
							c-0.4-0.4-0.9-0.6-1.4-0.6s-1.1,0.2-1.4,0.6l-5.4,5.4l-5.4-5.4c-0.4-0.4-0.9-0.6-1.4-0.6s-1.1,0.2-1.4,0.6l-5.4,5.4l-5.4-5.4
							c-0.4-0.4-0.9-0.6-1.4-0.6c-0.5,0-1.1,0.2-1.4,0.6l-5.4,5.4l-5.4-5.4c-0.4-0.4-0.9-0.6-1.4-0.6c-0.5,0-1.1,0.2-1.4,0.6
							l-5.4,5.4l-5.4-5.4c-0.4-0.4-0.9-0.6-1.4-0.6c-0.5,0-1.1,0.2-1.4,0.6l-12.4,12.4c-0.8,0.8-0.8,2.1,0,2.9l5.4,5.4l-5.4,5.4
							c-0.8,0.8-0.8,2.1,0,2.9l5.4,5.4l-5.4,5.4c-0.8,0.8-0.8,2.1,0,2.9l5.4,5.4l-5.4,5.4c-0.8,0.8-0.8,2.1,0,2.9l5.4,5.4l-5.4,5.4
							c-0.8,0.8-0.8,2.1,0,2.9l5.4,5.4l-5.4,5.4c-0.8,0.8-0.8,2.1,0,2.9l12.4,12.4c0.4,0.4,0.9,0.6,1.4,0.6c0.5,0,1-0.2,1.4-0.6
							l5.4-5.4l1.1,1.1l5.4,5.4l-5.4,5.4c-0.8,0.8-0.8,2.1,0,2.9l12.7,12.7c0.4,0.4,0.9,0.6,1.4,0.6s1.1-0.2,1.4-0.6l5.4-5.4l4,4
							l-5.4,5.4c-0.8,0.8-0.8,2.1,0,2.9l12.4,12.4c0.8,0.8,2.1,0.8,2.9,0l5.4-5.4l5.4,5.4c0.8,0.8,2.1,0.8,2.9,0l5.4-5.4l5.4,5.4
							c0.8,0.8,2.1,0.8,2.9,0l5.4-5.4l5.4,5.4c0.8,0.8,2.1,0.8,2.9,0l5.4-5.4l5.4,5.4c0.4,0.4,0.9,0.6,1.4,0.6c0.5,0,1-0.2,1.4-0.6
							l5.4-5.4l5.4,5.4c0.8,0.8,2.1,0.8,2.9,0l5.5-5.5c0,0,0,0,0,0l6.9-6.9c0.8-0.8,0.8-2.1,0-2.9l-5.4-5.4l5.4-5.4
							c0.8-0.8,0.8-2.1,0-2.9l-5.4-5.4l5.4-5.4c0.8-0.8,0.8-2.1,0-2.9l-5.4-5.4l5.4-5.4c0.8-0.8,0.8-2.1,0-2.9l-5.4-5.4l5.4-5.4
							C-711.8,401.2-711.8,399.9-712.6,399.1z M-807.6,425.2l-11.3-11.3c-0.1-0.1-0.1-0.1-0.2-0.2l-5.2-5.2l4-4l11.3,11.3
							c0,0,0.1,0.1,0.1,0.1l5.3,5.3L-807.6,425.2z M-807.6,411.4l-11.2-11.2c0,0-0.1-0.1-0.1-0.1l-5.4-5.4l4-4l11.1,11.1
							c0.1,0.1,0.1,0.1,0.2,0.2l5.4,5.4L-807.6,411.4z M-807.6,397.6l-11.3-11.3c-0.1-0.1-0.1-0.1-0.2-0.2l-5.2-5.2l4-4l11.3,11.3
							c0,0,0,0,0,0l5.4,5.4L-807.6,397.6z M-807.6,383.9l-11.2-11.2c0,0,0,0,0,0l-5.4-5.4l3.3-3.3l16.7,16.7L-807.6,383.9z
							 M-801.4,377.7l-16.7-16.7l3.3-3.3l5.4,5.4c0,0,0,0,0,0l11.2,11.2L-801.4,377.7z M-788.3,378.4l-16.7-16.7l4-4l5.4,5.4
							c0,0,0.1,0.1,0.1,0.1l11.2,11.2L-788.3,378.4z M-774.6,378.4l-16.7-16.7l4-4l5.4,5.4c0.1,0.1,0.1,0.1,0.2,0.1l11.1,11.1
							L-774.6,378.4z M-760.8,378.4l-16.7-16.7l4-4l5.4,5.4c0.1,0.1,0.1,0.1,0.2,0.2l11.1,11.1L-760.8,378.4z M-747,378.4
							l-16.7-16.7l4-4l5.4,5.4c0.1,0.1,0.1,0.1,0.2,0.2l11.1,11.1L-747,378.4z M-746,357.7l9.8,9.8l-4,4l-9.8-9.8L-746,357.7z
							 M-831.1,418.3l-5.4,5.4l-9.5-9.5l5.4-5.4c0.8-0.8,0.8-2.1,0-2.9l-5.4-5.4l5.4-5.4c0.8-0.8,0.8-2.1,0-2.9l-5.4-5.4l5.4-5.4
							c0.8-0.8,0.8-2.1,0-2.9l-5.4-5.4l5.4-5.4c0.8-0.8,0.8-2.1,0-2.9l-5.4-5.4l5.4-5.4c0.8-0.8,0.8-2.1,0-2.9l-5.4-5.4l9.5-9.5
							l5.4,5.4c0.4,0.4,0.9,0.6,1.4,0.6s1.1-0.2,1.4-0.6l5.4-5.4l5.4,5.4c0.4,0.4,0.9,0.6,1.4,0.6s1.1-0.2,1.4-0.6l5.4-5.4l5.4,5.4
							c0.4,0.4,0.9,0.6,1.4,0.6s1.1-0.2,1.4-0.6l5.4-5.4l5.4,5.4c0.4,0.4,0.9,0.6,1.4,0.6c0.5,0,1.1-0.2,1.4-0.6l5.4-5.4l5.4,5.4
							c0.4,0.4,0.9,0.6,1.4,0.6s1.1-0.2,1.4-0.6l5.4-5.4l9.5,9.5l-5.4,5.4c-0.8,0.8-0.8,2.1,0,2.9l1.1,1.1l-4,4l-5.4-5.4
							c-0.4-0.4-0.9-0.6-1.4-0.6c-0.5,0-1.1,0.2-1.4,0.6l-5.4,5.4l-5.4-5.4c-0.4-0.4-0.9-0.6-1.4-0.6s-1.1,0.2-1.4,0.6l-5.4,5.4
							l-5.4-5.4c-0.4-0.4-0.9-0.6-1.4-0.6s-1.1,0.2-1.4,0.6l-5.4,5.4l-5.4-5.4c-0.4-0.4-0.9-0.6-1.4-0.6s-1.1,0.2-1.4,0.6
							l-12.4,12.4c-0.8,0.8-0.8,2.1,0,2.9l5.4,5.4l-5.4,5.4c-0.8,0.8-0.8,2.1,0,2.9l5.4,5.4l-5.4,5.4c-0.8,0.8-0.8,2.1,0,2.9
							l5.4,5.4l-5.4,5.4c-0.8,0.8-0.8,2.1,0,2.9l5.4,5.4l-4,4l-1.1-1.1c-0.4-0.4-0.9-0.6-1.4-0.6S-830.8,417.9-831.1,418.3z
							 M-824.3,422.2l4-4l11.1,11.1c0.1,0.1,0.1,0.1,0.2,0.2l5.4,5.4l-4,4l-11.2-11.2c0,0-0.1-0.1-0.1-0.1L-824.3,422.2z
							 M-814.5,445.8l-9.8-9.8l4-4l9.8,9.8L-814.5,445.8z M-722.4,406c-0.8,0.8-0.8,2.1,0,2.9l5.4,5.4l-5.4,5.4
							c-0.8,0.8-0.8,2.1,0,2.9l5.4,5.4l-5.4,5.4c-0.8,0.8-0.8,2.1,0,2.9l5.4,5.4l-5.4,5.4c-0.8,0.8-0.8,2.1,0,2.9l5.4,5.4l-4.1,4.1
							c0,0,0,0,0,0l-5.4,5.4l-5.4-5.4c-0.4-0.4-0.9-0.6-1.4-0.6s-1,0.2-1.4,0.6l-5.4,5.4l-5.4-5.4c-0.8-0.8-2.1-0.8-2.9,0l-5.4,5.4
							l-5.4-5.4c-0.8-0.8-2.1-0.8-2.9,0l-5.4,5.4l-5.4-5.4c-0.8-0.8-2.1-0.8-2.9,0l-5.4,5.4l-5.4-5.4c-0.8-0.8-2.1-0.8-2.9,0
							l-5.4,5.4l-9.5-9.5l5.4-5.4c0.8-0.8,0.8-2.1,0-2.9l-5.4-5.4l5.4-5.4c0.8-0.8,0.8-2.1,0-2.9l-5.4-5.4l5.4-5.4
							c0.8-0.8,0.8-2.1,0-2.9l-5.4-5.4l5.4-5.4c0.8-0.8,0.8-2.1,0-2.9l-5.4-5.4l5.4-5.4c0.8-0.8,0.8-2.1,0-2.9l-5.4-5.4l9.5-9.5
							l5.4,5.4c0.4,0.4,0.9,0.6,1.4,0.6s1.1-0.2,1.4-0.6l5.4-5.4l5.4,5.4c0.4,0.4,0.9,0.6,1.4,0.6s1.1-0.2,1.4-0.6l5.4-5.4l5.4,5.4
							c0.4,0.4,0.9,0.6,1.4,0.6s1.1-0.2,1.4-0.6l5.4-5.4l5.4,5.4c0.4,0.4,0.9,0.6,1.4,0.6c0.5,0,1.1-0.2,1.4-0.6l5.4-5.4l5.4,5.4
							c0.4,0.4,0.9,0.6,1.4,0.6s1.1-0.2,1.4-0.6l5.4-5.4l9.5,9.5l-5.4,5.4c-0.8,0.8-0.8,2.1,0,2.9l5.4,5.4L-722.4,406z"/>
					</g>
				</g>
			</g>
		</g>
	</g>
</g>
</svg>
