<?xml version="1.0" encoding="utf-8"?>
<!-- Generator: Adobe Illustrator 19.0.0, SVG Export Plug-In . SVG Version: 6.00 Build 0)  -->
<svg version="1.1" id="Layer_1" xmlns="http://www.w3.org/2000/svg" xmlns:xlink="http://www.w3.org/1999/xlink" x="0px" y="0px"
	 viewBox="-840 360 238 81" style="enable-background:new -840 360 238 81;" xml:space="preserve">
<style type="text/css">
	.st0{fill:#21367E;}
	.st1{fill:#F2F5FF;}
	.st2{fill:none;stroke:#21367E;stroke-width:4;stroke-linecap:round;stroke-linejoin:round;}
	.st3{fill:none;stroke:#F18B1B;stroke-width:2.317;}
	.st4{fill:#F18B1B;}
	.st5{fill:none;stroke:#21367E;stroke-width:4;}
</style>
<title>partners</title>
<desc>Created with Sketch.</desc>
<g id="Final">
	<g id="Cooperation" transform="translate(-839.000000, -365.000000)">
		<g id="Group-10" transform="translate(840.000000, 366.000000)">
			<g id="partners">
				<g id="Group-15" transform="translate(43.544304, 4.050633)">
					<g id="manager-copy">
						<path id="Shape" class="st0" d="M-796.3,397.5c5.9-3.5,9.8-10,9.8-17.3c0-11.1-9-20.2-20-20.2s-20,9-20,20.2
							c0,7.4,3.9,13.8,9.8,17.3c-13.2,4.2-23.2,16.6-23.2,31.8c0,3.7,3,6.7,6.7,6.7c0.6,0,51.9,0,53.5,0c3.7,0,6.7-3,6.7-6.7
							C-773.2,414.1-783.2,401.7-796.3,397.5z M-822.2,380.2c0-8.7,7-15.7,15.6-15.7s15.6,7.1,15.6,15.7c0,8.7-7,15.7-15.6,15.7
							S-822.2,388.8-822.2,380.2z M-802.4,400.6l-4.2,3.5l-4.2-3.5c1.4-0.2,2.8-0.3,4.2-0.3S-803.8,400.5-802.4,400.6z
							 M-812.9,431.5h-20.4c-1.2,0-2.2-1-2.2-2.2c0-9.2,4.3-17.5,11.1-22.8l7.1,10.6c0.8,1.2,2.4,1.3,3.4,0.3l0.8-0.8l2,4
							L-812.9,431.5z M-814.1,411.4C-814.1,411.4-814.1,411.4-814.1,411.4l-1.1,1.1l-5.6-8.4c1.5-0.8,3-1.5,4.7-2.1
							c0.2,0.3-0.2-0.1,6.2,5.2L-814.1,411.4z M-808.4,431.5l1.8-10.8c0-0.1,0-0.2,0-0.4c0,0.1,0,0.2,0,0.4l1.8,10.8H-808.4z
							 M-806.3,419.4c-0.2,0.3-0.2,0.7-0.2,1c0-0.3-0.1-0.7-0.2-1l-3-6l3.2-3.2l3.2,3.2L-806.3,419.4z M-797.1,401.9
							c1.9,0.6,3.6,1.5,5.3,2.5l-6.1,8.1l-1.2-1.2c0,0,0,0,0,0l-4.2-4.2C-796.9,401.8-797.3,402.2-797.1,401.9z M-779.9,431.5h-20.4
							l-1.8-10.8l2-4l0.8,0.8c1,1,2.5,0.8,3.4-0.2l7.7-10.3c6.4,5.3,10.5,13.3,10.5,22.3C-777.6,430.5-778.6,431.5-779.9,431.5z"/>
					</g>
					<path id="Path" class="st1" d="M-771.4,432h-20l-1.8-11l2-4.1l0.8,0.8c0.9,1,2.5,0.9,3.3-0.2l7.6-10.5
						c6.3,5.4,10.3,13.6,10.3,22.7C-769.2,430.9-770.2,432-771.4,432z"/>
					<g id="manager-copy_1_" transform="translate(51.869922, 0.000000)">
						<path id="Shape_1_" class="st0" d="M-796.3,397.5c5.9-3.5,9.8-10,9.8-17.3c0-11.1-9-20.2-20-20.2s-20,9-20,20.2
							c0,7.4,3.9,13.8,9.8,17.3c-13.2,4.2-23.2,16.6-23.2,31.8c0,3.7,3,6.7,6.7,6.7c0.6,0,51.9,0,53.5,0c3.7,0,6.7-3,6.7-6.7
							C-773.2,414.1-783.2,401.7-796.3,397.5z M-822.2,380.2c0-8.7,7-15.7,15.6-15.7s15.6,7.1,15.6,15.7c0,8.7-7,15.7-15.6,15.7
							S-822.2,388.8-822.2,380.2z M-802.4,400.6l-4.2,3.5l-4.2-3.5c1.4-0.2,2.8-0.3,4.2-0.3S-803.8,400.5-802.4,400.6z
							 M-812.9,431.5h-20.4c-1.2,0-2.2-1-2.2-2.2c0-9.2,4.3-17.5,11.1-22.8l7.1,10.6c0.8,1.2,2.4,1.3,3.4,0.3l0.8-0.8l2,4
							L-812.9,431.5z M-814.1,411.4C-814.1,411.4-814.1,411.4-814.1,411.4l-1.1,1.1l-5.6-8.4c1.5-0.8,3-1.5,4.7-2.1
							c0.2,0.3-0.2-0.1,6.2,5.2L-814.1,411.4z M-808.4,431.5l1.8-10.8c0-0.1,0-0.2,0-0.4c0,0.1,0,0.2,0,0.4l1.8,10.8H-808.4z
							 M-806.3,419.4c-0.2,0.3-0.2,0.7-0.2,1c0-0.3-0.1-0.7-0.2-1l-3-6l3.2-3.2l3.2,3.2L-806.3,419.4z M-797.1,401.9
							c1.9,0.6,3.6,1.5,5.3,2.5l-6.1,8.1l-1.2-1.2c0,0,0,0,0,0l-4.2-4.2C-796.9,401.8-797.3,402.2-797.1,401.9z M-779.9,431.5h-20.4
							l-1.8-10.8l2-4l0.8,0.8c1,1,2.5,0.8,3.4-0.2l7.7-10.3c6.4,5.3,10.5,13.3,10.5,22.3C-777.6,430.5-778.6,431.5-779.9,431.5z"/>
					</g>
				</g>
				<g id="Group-23">
					<g id="Group-9">
						
							<g id="Group-25" transform="translate(173.591839, 20.759494) scale(-1, 1) translate(-173.591839, -20.759494) translate(135.110826, 0.000000)">
							
								<g id="Group-11" transform="translate(38.701063, 20.759494) scale(-1, 1) translate(-38.701063, -20.759494) translate(0.726379, 0.000000)">
								<polyline id="Stroke-4" class="st2" points="-840,401 -805,401 -778.6,375.4 								"/>
								<path id="Stroke-6" class="st3" d="M-764.8,368c0,4.3-3.5,7.8-7.8,7.8c-4.3,0-7.8-3.5-7.8-7.8c0-4.3,3.5-7.8,7.8-7.8
									C-768.3,360.3-764.8,363.7-764.8,368z"/>
								<path id="Fill-8" class="st4" d="M-770.5,368c0,1.2-0.9,2.1-2.1,2.1c-1.2,0-2.1-0.9-2.1-2.1c0-1.2,0.9-2.1,2.1-2.1
									C-771.5,365.9-770.5,366.9-770.5,368"/>
							</g>
						</g>
						
							<g id="Group-24" transform="translate(30.553628, 61.573466) scale(-1, 1) translate(-30.553628, -61.573466) translate(0.173881, 44.864605)">
							<g id="Group-3">
								<polyline id="Stroke-4_1_" class="st2" points="840.1,393 868.4,393 889.7,372.5 								"/>
								<path id="Stroke-6_1_" class="st3" d="M900,366.4c0,3.4-2.8,6.2-6.3,6.2c-3.5,0-6.3-2.8-6.3-6.2s2.8-6.2,6.3-6.2
									C897.2,360.2,900,363,900,366.4z"/>
								<path id="Fill-8_1_" class="st4" d="M895.4,366.4c0,0.9-0.8,1.7-1.7,1.7c-0.9,0-1.7-0.8-1.7-1.7s0.8-1.7,1.7-1.7
									C894.6,364.7,895.4,365.5,895.4,366.4"/>
							</g>
						</g>
					</g>
					
						<g id="Group-16" transform="translate(195.308444, 60.253165) scale(1, -1) translate(-195.308444, -60.253165) translate(155.308444, 42.531646)">
						<polyline id="Stroke-22" class="st5" points="-839.3,-359.9 -823.6,-359.9 -811.8,-331 -773.2,-331 						"/>
						<path id="Stroke-28" class="st3" d="M-760.3-331c0,3.4-2.8,6.2-6.3,6.2c-3.5,0-6.3-2.8-6.3-6.2c0-3.4,2.8-6.2,6.3-6.2
							C-763.1-337.2-760.3-334.5-760.3-331z"/>
						<path id="Fill-30" class="st4" d="M-764.9-331c0,0.9-0.8,1.7-1.7,1.7c-0.9,0-1.7-0.8-1.7-1.7s0.8-1.7,1.7-1.7
							C-765.6-332.7-764.9-332-764.9-331"/>
					</g>
				</g>
			</g>
		</g>
	</g>
</g>
</svg>
