<?xml version="1.0" encoding="UTF-8" standalone="no"?>
<svg width="150px" height="137px" viewBox="0 0 150 137" version="1.1" xmlns="http://www.w3.org/2000/svg" xmlns:xlink="http://www.w3.org/1999/xlink">
    <!-- Generator: Sketch 50.2 (55047) - http://www.bohemiancoding.com/sketch -->
    <title>solutions</title>
    <desc>Created with Sketch.</desc>
    <defs></defs>
    <g id="Final" stroke="none" stroke-width="1" fill="none" fill-rule="evenodd">
        <g id="Home" transform="translate(-58.000000, -1097.000000)">
            <g id="Group-17" transform="translate(60.000000, 1058.000000)">
                <g id="solutions" transform="translate(0.000000, 41.000000)">
                    <g id="Group-11" transform="translate(63.468050, 0.000000)">
                        <g id="Group-24">
                            <polyline id="Stroke-4" stroke="#21367E" stroke-width="4" stroke-linecap="round" stroke-linejoin="round" points="0.917494009 33.5786664 30.2902 33.5786664 52.4259296 12.0538802"></polyline>
                            <path d="M63.1551679,6.73732532 C63.1551679,10.3364041 60.2309412,13.2543131 56.6240698,13.2543131 C53.0171984,13.2543131 50.0929716,10.3364041 50.0929716,6.73732532 C50.0929716,3.13824655 53.0171984,0.220337576 56.6240698,0.220337576 C60.2309412,0.220337576 63.1551679,3.13824655 63.1551679,6.73732532 Z" id="Stroke-6" stroke="#F18B1B" stroke-width="2.317"></path>
                            <path d="M58.3918408,6.73732532 C58.3918408,7.71181517 57.6005302,8.50141608 56.6239305,8.50141608 C55.6473307,8.50141608 54.8560202,7.71181517 54.8560202,6.73732532 C54.8560202,5.76283548 55.6473307,4.97323457 56.6239305,4.97323457 C57.6005302,4.97323457 58.3918408,5.76283548 58.3918408,6.73732532" id="Fill-8" fill="#F18B1B"></path>
                            <polyline id="Stroke-22" stroke="#21367E" stroke-width="4" points="0.683709559 15.5965641 17.0379248 15.5965641 29.3366736 45.9253016 69.4274184 45.9253016"></polyline>
                            <path d="M82.8426395,45.9254406 C82.8426395,49.5245194 79.9184127,52.4424284 76.3115413,52.4424284 C72.7046699,52.4424284 69.7804432,49.5245194 69.7804432,45.9254406 C69.7804432,42.3263619 72.7046699,39.4084529 76.3115413,39.4084529 C79.9184127,39.4084529 82.8426395,42.3263619 82.8426395,45.9254406 Z" id="Stroke-28" stroke="#F18B1B" stroke-width="2.317"></path>
                            <path d="M78.0793123,45.9254406 C78.0793123,46.8999305 77.2880018,47.6895314 76.311402,47.6895314 C75.3348022,47.6895314 74.5434917,46.8999305 74.5434917,45.9254406 C74.5434917,44.9509508 75.3348022,44.1613499 76.311402,44.1613499 C77.2880018,44.1613499 78.0793123,44.9509508 78.0793123,45.9254406" id="Fill-30" fill="#F18B1B"></path>
                        </g>
                    </g>
                    <polyline id="Stroke-5" stroke="#21367E" stroke-width="4" stroke-linecap="round" stroke-linejoin="round" points="64.3855445 99.8750077 93.7582505 99.8750077 115.89398 121.399794"></polyline>
                    <g id="Group" transform="translate(0.000000, 0.026567)">
                        <path d="M126.623218,126.391179 C126.623218,129.990258 123.698992,132.908167 120.09212,132.908167 C116.485249,132.908167 113.561022,129.990258 113.561022,126.391179 C113.561022,122.792101 116.485249,119.874192 120.09212,119.874192 C123.698992,119.874192 126.623218,122.792101 126.623218,126.391179 Z" id="Stroke-10" stroke="#F18B1B" stroke-width="2.317"></path>
                        <path d="M121.859891,126.391179 C121.859891,127.365669 121.068581,128.15527 120.091981,128.15527 C119.115381,128.15527 118.324071,127.365669 118.324071,126.391179 C118.324071,125.41669 119.115381,124.627089 120.091981,124.627089 C121.068581,124.627089 121.859891,125.41669 121.859891,126.391179" id="Fill-12" fill="#F18B1B"></path>
                        <g id="Group-14" transform="translate(64.362205, 56.921260)">
                            <path d="M0.215302664,6.87972938 L36.9778065,6.87972938" id="Stroke-14" stroke="#21367E" stroke-width="4" stroke-linecap="round" stroke-linejoin="round"></path>
                            <path d="M50.6782058,6.80841507 C50.6782058,10.4074938 47.7539791,13.3254028 44.1471077,13.3254028 C40.5402363,13.3254028 37.6160096,10.4074938 37.6160096,6.80841507 C37.6160096,3.2093363 40.5402363,0.291427322 44.1471077,0.291427322 C47.7539791,0.291427322 50.6782058,3.2093363 50.6782058,6.80841507 Z" id="Stroke-16" stroke="#F18B1B" stroke-width="2.317"></path>
                            <path d="M45.915018,6.80841507 C45.915018,7.78290492 45.1237075,8.57250582 44.1471077,8.57250582 C43.1705079,8.57250582 42.3791974,7.78290492 42.3791974,6.80841507 C42.3791974,5.83392522 43.1705079,5.04432432 44.1471077,5.04432432 C45.1237075,5.04432432 45.915018,5.83392522 45.915018,6.80841507" id="Fill-18" fill="#F18B1B"></path>
                        </g>
                        <polyline id="Stroke-20" stroke="#21367E" stroke-width="4" points="64.15176 115.217632 80.5059753 115.217632 92.8047241 84.8888939 132.895469 84.8888939"></polyline>
                        <path d="M146.31069,85.0640519 C146.31069,88.6631307 143.386463,91.5810396 139.779592,91.5810396 C136.17272,91.5810396 133.248494,88.6631307 133.248494,85.0640519 C133.248494,81.4649731 136.17272,78.5470641 139.779592,78.5470641 C143.386463,78.5470641 146.31069,81.4649731 146.31069,85.0640519 Z" id="Stroke-24" stroke="#F18B1B" stroke-width="2.317"></path>
                        <path d="M141.547363,85.0640519 C141.547363,86.0385417 140.756052,86.8281426 139.779452,86.8281426 C138.802853,86.8281426 138.011542,86.0385417 138.011542,85.0640519 C138.011542,84.089562 138.802853,83.2999611 139.779452,83.2999611 C140.756052,83.2999611 141.547363,84.089562 141.547363,85.0640519" id="Fill-26" fill="#F18B1B"></path>
                        <path d="M64.5775074,1.87445306 C28.9211665,1.87445306 0.0146487388,30.7171284 0.0146487388,66.2978241 C0.0146487388,101.87713 28.9211665,130.721195 64.5775074,130.721195 C64.5775074,130.721195 33.1368455,121.600471 32.2967746,66.2978241 C31.4553106,10.9951776 64.5775074,1.87445306 64.5775074,1.87445306 Z" id="Stroke-32" stroke="#21367E" stroke-width="4" stroke-linecap="round" stroke-linejoin="round"></path>
                        <path d="M64.5775074,33.9556042 L8.74832073,33.9556042" id="Stroke-34" stroke="#21367E" stroke-width="4" stroke-linecap="round" stroke-linejoin="round"></path>
                        <path d="M64.5775074,63.8009892 L2.29245281,63.8009892" id="Stroke-36" stroke="#21367E" stroke-width="4" stroke-linecap="round" stroke-linejoin="round"></path>
                        <path d="M64.5775074,100.088711 L11.9762547,100.088711" id="Stroke-38" stroke="#21367E" stroke-width="4" stroke-linecap="round" stroke-linejoin="round"></path>
                        <path d="M65,0 L65,128.846742" id="Stroke-40" stroke="#21367E" stroke-width="4" stroke-linecap="round" stroke-linejoin="round"></path>
                    </g>
                </g>
            </g>
        </g>
    </g>
</svg>