<?xml version="1.0" encoding="utf-8"?>
<!-- Generator: Adobe Illustrator 19.0.0, SVG Export Plug-In . SVG Version: 6.00 Build 0)  -->
<svg version="1.1" id="Layer_1" xmlns="http://www.w3.org/2000/svg" xmlns:xlink="http://www.w3.org/1999/xlink" x="0px" y="0px"
	 viewBox="-878 332 163 137" style="enable-background:new -878 332 163 137;" xml:space="preserve">
<style type="text/css">
	.st0{fill:none;stroke:#21367E;stroke-width:4;stroke-linecap:round;stroke-linejoin:round;}
	.st1{fill:none;stroke:#F18B1B;stroke-width:2.317;}
	.st2{fill:#F18B1B;}
	.st3{fill:none;stroke:#21367E;stroke-width:4;}
</style>
<title>staff</title>
<desc>Created with Sketch.</desc>
<g id="Final">
	<g id="Home" transform="translate(-734.000000, -1098.000000)">
		<g id="Group-18" transform="translate(736.000000, 1058.000000)">
			
				<g id="staff" transform="translate(80.000000, 108.500000) scale(-1, 1) translate(-80.000000, -108.500000) translate(0.000000, 41.000000)">
				<g id="Group-25" transform="translate(14.013137, 70.234520)">
					
						<g id="Group-11" transform="translate(31.046120, 17.000000) scale(-1, 1) translate(-31.046120, -17.000000) translate(0.046120, 0.000000)">
						<polyline id="Stroke-4" class="st0" points="-878,365.1 -849,365.1 -827.2,343.9 						"/>
						<path id="Stroke-6" class="st1" d="M-816.6,338.6c0,3.5-2.9,6.4-6.4,6.4s-6.4-2.9-6.4-6.4s2.9-6.4,6.4-6.4
							S-816.6,335.1-816.6,338.6z"/>
						<path id="Fill-8" class="st2" d="M-821.3,338.6c0,1-0.8,1.7-1.7,1.7s-1.7-0.8-1.7-1.7c0-1,0.8-1.7,1.7-1.7
							S-821.3,337.7-821.3,338.6"/>
					</g>
					<g id="Group-10" transform="translate(33.409449, 42.000450)">
						<path id="Stroke-9" class="st0" d="M918.9,337.7h-29.5"/>
						<path id="Stroke-11" class="st1" d="M878,337.3c0-2.9,2.4-5.3,5.3-5.3s5.3,2.4,5.3,5.3s-2.4,5.3-5.3,5.3S878,340.3,878,337.3z
							"/>
						<path id="Fill-13" class="st2" d="M882.1,337.3c0-0.7,0.5-1.2,1.2-1.2c0.7,0,1.2,0.5,1.2,1.2s-0.5,1.2-1.2,1.2
							C882.6,338.5,882.1,338,882.1,337.3"/>
					</g>
				</g>
				<g id="Group" transform="translate(76.017049, 13.675471)">
					<path id="Stroke-27" class="st0" d="M898.8,378.9c-1.5-4.3,0.7-9.1,5.1-10.6c4.3-1.5,9.1,0.7,10.6,5c1.5,4.3-0.7,9.1-5.1,10.6
						C905.1,385.5,900.4,383.2,898.8,378.9z M879.8,388.1l10.5-1.5c1,1.5,2.1,2.9,3.4,4l-2.6,10.5l5,2.4l6.4-8.5
						c1.7,0.4,3.5,0.5,5.3,0.4l5.6,9.3l5.2-1.8l-1.5-10.5c1.5-1,2.9-2.1,4-3.4l10.5,2.6l2.4-5l-8.5-6.4c0.4-1.7,0.5-3.5,0.4-5.3
						l9.3-5.6l-1.8-5.2l-10.5,1.5c-1-1.5-2.1-2.9-3.4-4l2.6-10.5l-5-2.4l-6.4,8.5c-1.7-0.4-3.5-0.5-5.3-0.4l-5.6-9.3l-5.2,1.8
						l1.5,10.5c-1.5,1-2.9,2.1-4,3.4l-10.5-2.6l-2.4,5l8.5,6.4c-0.4,1.7-0.5,3.5-0.4,5.3l-9.3,5.6L879.8,388.1z"/>
					<path id="Stroke-29" class="st0" d="M901.3,332.5c0,0,42.6-8.3,48.1,45.2l11.8,22.5l-10,3.9l2.8,4.5l-4.9,2.9l4.8,2.9l-3.2,4.1
						c0,0,8.2,13.9-6.5,13.4c-14.6-0.5-19.1,0-19.1,0v19.8h-36.4"/>
				</g>
				<g id="Group-24" transform="translate(38.894898, 24.480782) scale(-1, 1) translate(-38.894898, -24.480782) ">
					<polyline id="Stroke-4_1_" class="st0" points="-877.1,362.9 -849.8,362.9 -829.2,343.1 					"/>
					<path id="Stroke-6_1_" class="st1" d="M-819.2,338.2c0,3.3-2.7,6-6.1,6s-6.1-2.7-6.1-6s2.7-6,6.1-6S-819.2,334.9-819.2,338.2z"
						/>
					<path id="Fill-8_1_" class="st2" d="M-823.6,338.2c0,0.9-0.7,1.6-1.6,1.6c-0.9,0-1.6-0.7-1.6-1.6s0.7-1.6,1.6-1.6
						C-824.3,336.6-823.6,337.3-823.6,338.2"/>
					<polyline id="Stroke-22" class="st3" points="-877.4,346.4 -862.1,346.4 -850.7,374.3 -813.3,374.3 					"/>
					<path id="Stroke-28" class="st1" d="M-800.8,374.3c0,3.3-2.7,6-6.1,6s-6.1-2.7-6.1-6c0-3.3,2.7-6,6.1-6
						S-800.8,370.9-800.8,374.3z"/>
					<path id="Fill-30" class="st2" d="M-805.3,374.3c0,0.9-0.7,1.6-1.6,1.6c-0.9,0-1.6-0.7-1.6-1.6s0.7-1.6,1.6-1.6
						C-806,372.6-805.3,373.4-805.3,374.3"/>
				</g>
			</g>
		</g>
	</g>
</g>
</svg>
